<?xml version="1.0" encoding="UTF-8"?>
<mxfile host="app.diagrams.net" agent="Mozilla/5.0 (Macintosh; Intel Mac OS X 10_15_7) AppleWebKit/537.36 (KHTML, like Gecko) Chrome/139.0.0.0 Safari/537.36" version="28.1.1">
  <diagram name="Page-1" id="mamafit-admin-flow">
    <mxGraphModel dx="2500" dy="1800" grid="1" gridSize="10" guides="1" tooltips="1" connect="1" arrows="1" fold="1" page="1" pageScale="1" pageWidth="850" pageHeight="1100" math="0" shadow="0">
      <root>
        <mxCell id="0" />
        <mxCell id="1" parent="0" />
        
        <!-- Login -->
        <mxCell id="2" style="edgeStyle=orthogonalEdgeStyle;rounded=0;orthogonalLoop=1;jettySize=auto;html=1;" edge="1" source="3" target="4" parent="1">
          <mxGeometry relative="1" as="geometry"/>
        </mxCell>
        <mxCell id="3" value="Login" style="rounded=1;whiteSpace=wrap;html=1;" vertex="1" parent="1">
          <mxGeometry x="375" y="50" width="100" height="40" as="geometry"/>
        </mxCell>
        
        <!-- Dashboard Admin -->
        <mxCell id="4" value="Dashboard Admin" style="rounded=1;whiteSpace=wrap;html=1;" vertex="1" parent="1">
          <mxGeometry x="350" y="150" width="150" height="50" as="geometry"/>
        </mxCell>
        
        <!-- Main Management Modules -->
        <mxCell id="5" style="edgeStyle=orthogonalEdgeStyle;rounded=0;orthogonalLoop=1;jettySize=auto;html=1;entryX=0.5;entryY=0;entryDx=0;entryDy=0;" edge="1" source="4" target="10" parent="1">
          <mxGeometry relative="1" as="geometry"/>
        </mxCell>
        <mxCell id="6" value="Click &quot;User Management&quot; tab" style="edgeLabel;html=1;align=center;verticalAlign=middle;resizable=0;points=[];" connectable="0" vertex="1" parent="5">
          <mxGeometry x="-0.1" y="2" relative="1" as="geometry">
            <mxPoint as="offset"/>
          </mxGeometry>
        </mxCell>
        
        <mxCell id="7" style="edgeStyle=orthogonalEdgeStyle;rounded=0;orthogonalLoop=1;jettySize=auto;html=1;entryX=0.5;entryY=0;entryDx=0;entryDy=0;" edge="1" source="4" target="15" parent="1">
          <mxGeometry relative="1" as="geometry"/>
        </mxCell>
        <mxCell id="8" value="Click &quot;Branch Management&quot; tab" style="edgeLabel;html=1;align=center;verticalAlign=middle;resizable=0;points=[];" connectable="0" vertex="1" parent="7">
          <mxGeometry x="-0.1" y="2" relative="1" as="geometry">
            <mxPoint as="offset"/>
          </mxGeometry>
        </mxCell>
        
        <mxCell id="9" style="edgeStyle=orthogonalEdgeStyle;rounded=0;orthogonalLoop=1;jettySize=auto;html=1;entryX=0.5;entryY=0;entryDx=0;entryDy=0;" edge="1" source="4" target="20" parent="1">
          <mxGeometry relative="1" as="geometry"/>
        </mxCell>
        
        <!-- User Management -->
        <mxCell id="10" value="User Management" style="whiteSpace=wrap;html=1;rounded=1;" vertex="1" parent="1">
          <mxGeometry x="100" y="270" width="120" height="50" as="geometry"/>
        </mxCell>
        
        <mxCell id="11" style="edgeStyle=orthogonalEdgeStyle;rounded=0;orthogonalLoop=1;jettySize=auto;html=1;" edge="1" source="10" target="12" parent="1">
          <mxGeometry relative="1" as="geometry"/>
        </mxCell>
        
        <mxCell id="12" value="User List" style="whiteSpace=wrap;html=1;rounded=1;" vertex="1" parent="1">
          <mxGeometry x="100" y="360" width="120" height="40" as="geometry"/>
        </mxCell>
        
        <mxCell id="13" style="edgeStyle=orthogonalEdgeStyle;rounded=0;orthogonalLoop=1;jettySize=auto;html=1;" edge="1" source="12" target="14" parent="1">
          <mxGeometry relative="1" as="geometry"/>
        </mxCell>
        <mxCell id="14" value="Add User" style="whiteSpace=wrap;html=1;rounded=1;" vertex="1" parent="1">
          <mxGeometry x="40" y="440" width="80" height="35" as="geometry"/>
        </mxCell>
        
        <!-- Branch Management -->
        <mxCell id="15" value="Branch Management" style="whiteSpace=wrap;html=1;rounded=1;" vertex="1" parent="1">
          <mxGeometry x="250" y="270" width="120" height="50" as="geometry"/>
        </mxCell>
        
        <mxCell id="16" style="edgeStyle=orthogonalEdgeStyle;rounded=0;orthogonalLoop=1;jettySize=auto;html=1;" edge="1" source="15" target="17" parent="1">
          <mxGeometry relative="1" as="geometry"/>
        </mxCell>
        
        <mxCell id="17" value="Branch List" style="whiteSpace=wrap;html=1;rounded=1;" vertex="1" parent="1">
          <mxGeometry x="250" y="360" width="120" height="40" as="geometry"/>
        </mxCell>
        
        <mxCell id="18" style="edgeStyle=orthogonalEdgeStyle;rounded=0;orthogonalLoop=1;jettySize=auto;html=1;" edge="1" source="17" target="19" parent="1">
          <mxGeometry relative="1" as="geometry"/>
        </mxCell>
        <mxCell id="19" value="Add Branch" style="whiteSpace=wrap;html=1;rounded=1;" vertex="1" parent="1">
          <mxGeometry x="190" y="440" width="80" height="35" as="geometry"/>
        </mxCell>
        
        <!-- Order Management -->
        <mxCell id="20" value="Order Management" style="whiteSpace=wrap;html=1;rounded=1;" vertex="1" parent="1">
          <mxGeometry x="400" y="270" width="120" height="50" as="geometry"/>
        </mxCell>
        
        <mxCell id="21" style="edgeStyle=orthogonalEdgeStyle;rounded=0;orthogonalLoop=1;jettySize=auto;html=1;" edge="1" source="20" target="22" parent="1">
          <mxGeometry relative="1" as="geometry"/>
        </mxCell>
        
        <mxCell id="22" value="Order List" style="whiteSpace=wrap;html=1;rounded=1;" vertex="1" parent="1">
          <mxGeometry x="400" y="360" width="120" height="40" as="geometry"/>
        </mxCell>
        
        <!-- Order Sub-flows -->
        <mxCell id="23" style="edgeStyle=orthogonalEdgeStyle;rounded=0;orthogonalLoop=1;jettySize=auto;html=1;" edge="1" source="22" target="24" parent="1">
          <mxGeometry relative="1" as="geometry"/>
        </mxCell>
        <mxCell id="24" value="View Order Details" style="whiteSpace=wrap;html=1;rounded=1;" vertex="1" parent="1">
          <mxGeometry x="300" y="440" width="100" height="35" as="geometry"/>
        </mxCell>
        
        <mxCell id="25" style="edgeStyle=orthogonalEdgeStyle;rounded=0;orthogonalLoop=1;jettySize=auto;html=1;" edge="1" source="22" target="26" parent="1">
          <mxGeometry relative="1" as="geometry"/>
        </mxCell>
        <mxCell id="26" value="Add Order" style="whiteSpace=wrap;html=1;rounded=1;" vertex="1" parent="1">
          <mxGeometry x="420" y="440" width="80" height="35" as="geometry"/>
        </mxCell>
        
        <mxCell id="27" style="edgeStyle=orthogonalEdgeStyle;rounded=0;orthogonalLoop=1;jettySize=auto;html=1;" edge="1" source="22" target="28" parent="1">
          <mxGeometry relative="1" as="geometry"/>
        </mxCell>
        <mxCell id="28" value="Update Status" style="whiteSpace=wrap;html=1;rounded=1;" vertex="1" parent="1">
          <mxGeometry x="520" y="440" width="80" height="35" as="geometry"/>
        </mxCell>
        
        <!-- Order Detail Sub-flows -->
        <mxCell id="29" style="edgeStyle=orthogonalEdgeStyle;rounded=0;orthogonalLoop=1;jettySize=auto;html=1;" edge="1" source="24" target="30" parent="1">
          <mxGeometry relative="1" as="geometry"/>
        </mxCell>
        <mxCell id="30" value="Track Progress" style="whiteSpace=wrap;html=1;rounded=1;" vertex="1" parent="1">
          <mxGeometry x="250" y="520" width="80" height="35" as="geometry"/>
        </mxCell>
        
        <mxCell id="31" style="edgeStyle=orthogonalEdgeStyle;rounded=0;orthogonalLoop=1;jettySize=auto;html=1;" edge="1" source="24" target="32" parent="1">
          <mxGeometry relative="1" as="geometry"/>
        </mxCell>
        <mxCell id="32" value="Order Detail Sidebar" style="whiteSpace=wrap;html=1;rounded=1;" vertex="1" parent="1">
          <mxGeometry x="350" y="520" width="100" height="35" as="geometry"/>
        </mxCell>
        
        <!-- Additional Management Modules -->
        <mxCell id="33" style="edgeStyle=orthogonalEdgeStyle;rounded=0;orthogonalLoop=1;jettySize=auto;html=1;entryX=0.5;entryY=0;entryDx=0;entryDy=0;" edge="1" source="4" target="34" parent="1">
          <mxGeometry relative="1" as="geometry"/>
        </mxCell>
        <mxCell id="34" value="Category Management" style="whiteSpace=wrap;html=1;rounded=1;" vertex="1" parent="1">
          <mxGeometry x="550" y="270" width="120" height="50" as="geometry"/>
        </mxCell>
        
        <mxCell id="35" style="edgeStyle=orthogonalEdgeStyle;rounded=0;orthogonalLoop=1;jettySize=auto;html=1;" edge="1" source="34" target="36" parent="1">
          <mxGeometry relative="1" as="geometry"/>
        </mxCell>
        <mxCell id="36" value="Category List" style="whiteSpace=wrap;html=1;rounded=1;" vertex="1" parent="1">
          <mxGeometry x="550" y="360" width="120" height="40" as="geometry"/>
        </mxCell>
        
        <mxCell id="37" style="edgeStyle=orthogonalEdgeStyle;rounded=0;orthogonalLoop=1;jettySize=auto;html=1;" edge="1" source="36" target="38" parent="1">
          <mxGeometry relative="1" as="geometry"/>
        </mxCell>
        <mxCell id="38" value="Add Category" style="whiteSpace=wrap;html=1;rounded=1;" vertex="1" parent="1">
          <mxGeometry x="490" y="440" width="80" height="35" as="geometry"/>
        </mxCell>
        
        <mxCell id="39" style="edgeStyle=orthogonalEdgeStyle;rounded=0;orthogonalLoop=1;jettySize=auto;html=1;" edge="1" source="36" target="40" parent="1">
          <mxGeometry relative="1" as="geometry"/>
        </mxCell>
        <mxCell id="40" value="Edit Category" style="whiteSpace=wrap;html=1;rounded=1;" vertex="1" parent="1">
          <mxGeometry x="590" y="440" width="80" height="35" as="geometry"/>
        </mxCell>
        
        <!-- Component Management -->
        <mxCell id="41" style="edgeStyle=orthogonalEdgeStyle;rounded=0;orthogonalLoop=1;jettySize=auto;html=1;entryX=0.5;entryY=0;entryDx=0;entryDy=0;" edge="1" source="4" target="42" parent="1">
          <mxGeometry relative="1" as="geometry"/>
        </mxCell>
        <mxCell id="42" value="Component Management" style="whiteSpace=wrap;html=1;rounded=1;" vertex="1" parent="1">
          <mxGeometry x="700" y="270" width="120" height="50" as="geometry"/>
        </mxCell>
        
        <mxCell id="43" style="edgeStyle=orthogonalEdgeStyle;rounded=0;orthogonalLoop=1;jettySize=auto;html=1;" edge="1" source="42" target="44" parent="1">
          <mxGeometry relative="1" as="geometry"/>
        </mxCell>
        <mxCell id="44" value="Component List" style="whiteSpace=wrap;html=1;rounded=1;" vertex="1" parent="1">
          <mxGeometry x="700" y="360" width="120" height="40" as="geometry"/>
        </mxCell>
        
        <!-- Maternity Dress Management -->
        <mxCell id="45" style="edgeStyle=orthogonalEdgeStyle;rounded=0;orthogonalLoop=1;jettySize=auto;html=1;entryX=0.5;entryY=0;entryDx=0;entryDy=0;" edge="1" source="4" target="46" parent="1">
          <mxGeometry relative="1" as="geometry"/>
        </mxCell>
        <mxCell id="46" value="Maternity Dress Management" style="whiteSpace=wrap;html=1;rounded=1;" vertex="1" parent="1">
          <mxGeometry x="850" y="270" width="140" height="50" as="geometry"/>
        </mxCell>
        
        <mxCell id="47" style="edgeStyle=orthogonalEdgeStyle;rounded=0;orthogonalLoop=1;jettySize=auto;html=1;" edge="1" source="46" target="48" parent="1">
          <mxGeometry relative="1" as="geometry"/>
        </mxCell>
        <mxCell id="48" value="Dress List" style="whiteSpace=wrap;html=1;rounded=1;" vertex="1" parent="1">
          <mxGeometry x="870" y="360" width="100" height="40" as="geometry"/>
        </mxCell>
        
        <mxCell id="49" style="edgeStyle=orthogonalEdgeStyle;rounded=0;orthogonalLoop=1;jettySize=auto;html=1;" edge="1" source="48" target="50" parent="1">
          <mxGeometry relative="1" as="geometry"/>
        </mxCell>
        <mxCell id="50" value="Allocate to Branch" style="whiteSpace=wrap;html=1;rounded=1;" vertex="1" parent="1">
          <mxGeometry x="820" y="440" width="90" height="35" as="geometry"/>
        </mxCell>
        
        <mxCell id="51" style="edgeStyle=orthogonalEdgeStyle;rounded=0;orthogonalLoop=1;jettySize=auto;html=1;" edge="1" source="48" target="52" parent="1">
          <mxGeometry relative="1" as="geometry"/>
        </mxCell>
        <mxCell id="52" value="View Dress Details" style="whiteSpace=wrap;html=1;rounded=1;" vertex="1" parent="1">
          <mxGeometry x="930" y="440" width="90" height="35" as="geometry"/>
        </mxCell>
        
        <!-- Additional Management Modules Row 2 -->
        <mxCell id="53" style="edgeStyle=orthogonalEdgeStyle;rounded=0;orthogonalLoop=1;jettySize=auto;html=1;entryX=0.5;entryY=0;entryDx=0;entryDy=0;" edge="1" source="4" target="54" parent="1">
          <mxGeometry relative="1" as="geometry"/>
        </mxCell>
        <mxCell id="54" value="Transaction Management" style="whiteSpace=wrap;html=1;rounded=1;" vertex="1" parent="1">
          <mxGeometry x="100" y="600" width="120" height="50" as="geometry"/>
        </mxCell>
        
        <mxCell id="55" style="edgeStyle=orthogonalEdgeStyle;rounded=0;orthogonalLoop=1;jettySize=auto;html=1;" edge="1" source="54" target="56" parent="1">
          <mxGeometry relative="1" as="geometry"/>
        </mxCell>
        <mxCell id="56" value="Transaction List" style="whiteSpace=wrap;html=1;rounded=1;" vertex="1" parent="1">
          <mxGeometry x="100" y="690" width="120" height="40" as="geometry"/>
        </mxCell>
        
        <mxCell id="57" style="edgeStyle=orthogonalEdgeStyle;rounded=0;orthogonalLoop=1;jettySize=auto;html=1;" edge="1" source="56" target="58" parent="1">
          <mxGeometry relative="1" as="geometry"/>
        </mxCell>
        <mxCell id="58" value="View Transaction Details" style="whiteSpace=wrap;html=1;rounded=1;" vertex="1" parent="1">
          <mxGeometry x="80" y="770" width="160" height="35" as="geometry"/>
        </mxCell>
        
        <!-- Voucher Management -->
        <mxCell id="59" style="edgeStyle=orthogonalEdgeStyle;rounded=0;orthogonalLoop=1;jettySize=auto;html=1;entryX=0.5;entryY=0;entryDx=0;entryDy=0;" edge="1" source="4" target="60" parent="1">
          <mxGeometry relative="1" as="geometry"/>
        </mxCell>
        <mxCell id="60" value="Voucher Management" style="whiteSpace=wrap;html=1;rounded=1;" vertex="1" parent="1">
          <mxGeometry x="250" y="600" width="120" height="50" as="geometry"/>
        </mxCell>
        
        <mxCell id="61" style="edgeStyle=orthogonalEdgeStyle;rounded=0;orthogonalLoop=1;jettySize=auto;html=1;" edge="1" source="60" target="62" parent="1">
          <mxGeometry relative="1" as="geometry"/>
        </mxCell>
        <mxCell id="62" value="Voucher List" style="whiteSpace=wrap;html=1;rounded=1;" vertex="1" parent="1">
          <mxGeometry x="250" y="690" width="120" height="40" as="geometry"/>
        </mxCell>
        
        <mxCell id="63" style="edgeStyle=orthogonalEdgeStyle;rounded=0;orthogonalLoop=1;jettySize=auto;html=1;" edge="1" source="62" target="64" parent="1">
          <mxGeometry relative="1" as="geometry"/>
        </mxCell>
        <mxCell id="64" value="Add Voucher" style="whiteSpace=wrap;html=1;rounded=1;" vertex="1" parent="1">
          <mxGeometry x="190" y="770" width="80" height="35" as="geometry"/>
        </mxCell>
        
        <mxCell id="65" style="edgeStyle=orthogonalEdgeStyle;rounded=0;orthogonalLoop=1;jettySize=auto;html=1;" edge="1" source="62" target="66" parent="1">
          <mxGeometry relative="1" as="geometry"/>
        </mxCell>
        <mxCell id="66" value="Assign Voucher" style="whiteSpace=wrap;html=1;rounded=1;" vertex="1" parent="1">
          <mxGeometry x="290" y="770" width="80" height="35" as="geometry"/>
        </mxCell>
        
        <!-- Warranty Management -->
        <mxCell id="67" style="edgeStyle=orthogonalEdgeStyle;rounded=0;orthogonalLoop=1;jettySize=auto;html=1;entryX=0.5;entryY=0;entryDx=0;entryDy=0;" edge="1" source="4" target="68" parent="1">
          <mxGeometry relative="1" as="geometry"/>
        </mxCell>
        <mxCell id="68" value="Warranty Management" style="whiteSpace=wrap;html=1;rounded=1;" vertex="1" parent="1">
          <mxGeometry x="400" y="600" width="120" height="50" as="geometry"/>
        </mxCell>
        
        <mxCell id="69" style="edgeStyle=orthogonalEdgeStyle;rounded=0;orthogonalLoop=1;jettySize=auto;html=1;" edge="1" source="68" target="70" parent="1">
          <mxGeometry relative="1" as="geometry"/>
        </mxCell>
        <mxCell id="70" value="Warranty Request List" style="whiteSpace=wrap;html=1;rounded=1;" vertex="1" parent="1">
          <mxGeometry x="400" y="690" width="120" height="40" as="geometry"/>
        </mxCell>
        
        <mxCell id="71" style="edgeStyle=orthogonalEdgeStyle;rounded=0;orthogonalLoop=1;jettySize=auto;html=1;" edge="1" source="70" target="72" parent="1">
          <mxGeometry relative="1" as="geometry"/>
        </mxCell>
        <mxCell id="72" value="View Warranty Details" style="whiteSpace=wrap;html=1;rounded=1;" vertex="1" parent="1">
          <mxGeometry x="340" y="770" width="90" height="35" as="geometry"/>
        </mxCell>
        
        <mxCell id="73" style="edgeStyle=orthogonalEdgeStyle;rounded=0;orthogonalLoop=1;jettySize=auto;html=1;" edge="1" source="70" target="74" parent="1">
          <mxGeometry relative="1" as="geometry"/>
        </mxCell>
        <mxCell id="74" value="Warranty Decision" style="whiteSpace=wrap;html=1;rounded=1;" vertex="1" parent="1">
          <mxGeometry x="450" y="770" width="90" height="35" as="geometry"/>
        </mxCell>
        
        <!-- System Config & Style -->
        <mxCell id="75" style="edgeStyle=orthogonalEdgeStyle;rounded=0;orthogonalLoop=1;jettySize=auto;html=1;entryX=0.5;entryY=0;entryDx=0;entryDy=0;" edge="1" source="4" target="76" parent="1">
          <mxGeometry relative="1" as="geometry"/>
        </mxCell>
        <mxCell id="76" value="System Config" style="whiteSpace=wrap;html=1;rounded=1;" vertex="1" parent="1">
          <mxGeometry x="550" y="600" width="120" height="50" as="geometry"/>
        </mxCell>
        
        <mxCell id="77" style="edgeStyle=orthogonalEdgeStyle;rounded=0;orthogonalLoop=1;jettySize=auto;html=1;" edge="1" source="76" target="78" parent="1">
          <mxGeometry relative="1" as="geometry"/>
        </mxCell>
        <mxCell id="78" value="View/Update Config" style="whiteSpace=wrap;html=1;rounded=1;" vertex="1" parent="1">
          <mxGeometry x="550" y="690" width="120" height="40" as="geometry"/>
        </mxCell>
        
        <mxCell id="79" style="edgeStyle=orthogonalEdgeStyle;rounded=0;orthogonalLoop=1;jettySize=auto;html=1;entryX=0.5;entryY=0;entryDx=0;entryDy=0;" edge="1" source="4" target="80" parent="1">
          <mxGeometry relative="1" as="geometry"/>
        </mxCell>
        <mxCell id="80" value="Style Management" style="whiteSpace=wrap;html=1;rounded=1;" vertex="1" parent="1">
          <mxGeometry x="700" y="600" width="120" height="50" as="geometry"/>
        </mxCell>
        
        <mxCell id="81" style="edgeStyle=orthogonalEdgeStyle;rounded=0;orthogonalLoop=1;jettySize=auto;html=1;" edge="1" source="80" target="82" parent="1">
          <mxGeometry relative="1" as="geometry"/>
        </mxCell>
        <mxCell id="82" value="Style Form" style="whiteSpace=wrap;html=1;rounded=1;" vertex="1" parent="1">
          <mxGeometry x="700" y="690" width="120" height="40" as="geometry"/>
        </mxCell>
        
        <!-- Milestone Management -->
        <mxCell id="83" style="edgeStyle=orthogonalEdgeStyle;rounded=0;orthogonalLoop=1;jettySize=auto;html=1;entryX=0.5;entryY=0;entryDx=0;entryDy=0;" edge="1" source="4" target="84" parent="1">
          <mxGeometry relative="1" as="geometry"/>
        </mxCell>
        <mxCell id="84" value="Milestone Management" style="whiteSpace=wrap;html=1;rounded=1;" vertex="1" parent="1">
          <mxGeometry x="850" y="600" width="120" height="50" as="geometry"/>
        </mxCell>
        
        <mxCell id="85" style="edgeStyle=orthogonalEdgeStyle;rounded=0;orthogonalLoop=1;jettySize=auto;html=1;" edge="1" source="84" target="86" parent="1">
          <mxGeometry relative="1" as="geometry"/>
        </mxCell>
        <mxCell id="86" value="Milestone List" style="whiteSpace=wrap;html=1;rounded=1;" vertex="1" parent="1">
          <mxGeometry x="850" y="690" width="120" height="40" as="geometry"/>
        </mxCell>
        
        <mxCell id="87" style="edgeStyle=orthogonalEdgeStyle;rounded=0;orthogonalLoop=1;jettySize=auto;html=1;" edge="1" source="86" target="88" parent="1">
          <mxGeometry relative="1" as="geometry"/>
        </mxCell>
        <mxCell id="88" value="Add Milestone" style="whiteSpace=wrap;html=1;rounded=1;" vertex="1" parent="1">
          <mxGeometry x="790" y="770" width="80" height="35" as="geometry"/>
        </mxCell>
        
        <mxCell id="89" style="edgeStyle=orthogonalEdgeStyle;rounded=0;orthogonalLoop=1;jettySize=auto;html=1;" edge="1" source="86" target="90" parent="1">
          <mxGeometry relative="1" as="geometry"/>
        </mxCell>
        <mxCell id="90" value="Edit Milestone" style="whiteSpace=wrap;html=1;rounded=1;" vertex="1" parent="1">
          <mxGeometry x="890" y="770" width="80" height="35" as="geometry"/>
        </mxCell>
        
      </root>
    </mxGraphModel>
  </diagram>
</mxfile>
